<?xml version="1.0" encoding="UTF-8" standalone="no"?>
<!DOCTYPE svg PUBLIC "-//W3C//DTD SVG 1.1//EN"
 "http://www.w3.org/Graphics/SVG/1.1/DTD/svg11.dtd">
<!-- Generated by graphviz version 2.40.1 (20161225.0304)
 -->
<!-- Title: dependencies Pages: 1 -->
<svg width="538pt" height="284pt"
 viewBox="0.00 0.00 538.00 284.00" xmlns="http://www.w3.org/2000/svg" xmlns:xlink="http://www.w3.org/1999/xlink">
<g id="graph0" class="graph" transform="scale(1 1) rotate(0) translate(4 280)">
<title>dependencies</title>
<polygon fill="#ffffff" stroke="transparent" points="-4,4 -4,-280 534,-280 534,4 -4,4"/>
<text text-anchor="start" x="244.0091" y="-42.4" font-family="sans-serif" font-weight="bold" font-size="14.00" fill="#000000">Legend</text>
<polygon fill="#ffffb3" stroke="transparent" points="31,-10 31,-30 51,-30 51,-10 31,-10"/>
<text text-anchor="start" x="54.629" y="-15.4" font-family="sans-serif" font-size="14.00" fill="#000000"> &#160;Declarations</text>
<polygon fill="#8dd3c7" stroke="transparent" points="144,-10 144,-30 164,-30 164,-10 144,-10"/>
<text text-anchor="start" x="167.7251" y="-15.4" font-family="sans-serif" font-size="14.00" fill="#000000"> &#160;Module</text>
<polygon fill="#80b1d3" stroke="transparent" points="230,-10 230,-30 250,-30 250,-10 230,-10"/>
<text text-anchor="start" x="253.7812" y="-15.4" font-family="sans-serif" font-size="14.00" fill="#000000"> &#160;Bootstrap</text>
<polygon fill="#fdb462" stroke="transparent" points="327,-10 327,-30 347,-30 347,-10 327,-10"/>
<text text-anchor="start" x="350.6732" y="-15.4" font-family="sans-serif" font-size="14.00" fill="#000000"> &#160;Providers</text>
<polygon fill="#fb8072" stroke="transparent" points="423,-10 423,-30 443,-30 443,-10 423,-10"/>
<text text-anchor="start" x="446.7258" y="-15.4" font-family="sans-serif" font-size="14.00" fill="#000000"> &#160;Exports</text>
<g id="clust1" class="cluster">
<title>cluster_NgxFiledropperModule</title>
<polygon fill="none" stroke="#000000" stroke-dasharray="1,5" points="8,-70 8,-268 522,-268 522,-70 8,-70"/>
</g>
<g id="clust2" class="cluster">
<title>cluster_NgxFiledropperModule_declarations</title>
<polygon fill="none" stroke="#000000" points="152,-78 152,-130 514,-130 514,-78 152,-78"/>
</g>
<g id="clust5" class="cluster">
<title>cluster_NgxFiledropperModule_imports</title>
<polygon fill="none" stroke="#000000" points="16,-78 16,-130 144,-130 144,-78 16,-78"/>
</g>
<g id="clust6" class="cluster">
<title>cluster_NgxFiledropperModule_exports</title>
<polygon fill="none" stroke="#000000" points="80,-208 80,-260 450,-260 450,-208 80,-208"/>
</g>
<!-- NgxFiledropperComponent -->
<g id="node1" class="node">
<title>NgxFiledropperComponent</title>
<polygon fill="#ffffb3" stroke="#000000" points="506.2534,-122 335.7466,-122 335.7466,-86 506.2534,-86 506.2534,-122"/>
<text text-anchor="middle" x="421" y="-99.8" font-family="Times,serif" font-size="14.00" fill="#000000">NgxFiledropperComponent</text>
</g>
<!-- NgxFiledropperModule -->
<g id="node3" class="node">
<title>NgxFiledropperModule</title>
<polygon fill="#8dd3c7" stroke="#000000" points="313.4706,-187 310.4706,-191 289.4706,-191 286.4706,-187 164.5294,-187 164.5294,-151 313.4706,-151 313.4706,-187"/>
<text text-anchor="middle" x="239" y="-164.8" font-family="Times,serif" font-size="14.00" fill="#000000">NgxFiledropperModule</text>
</g>
<!-- NgxFiledropperComponent&#45;&gt;NgxFiledropperModule -->
<g id="edge1" class="edge">
<title>NgxFiledropperComponent&#45;&gt;NgxFiledropperModule</title>
<path fill="none" stroke="#000000" d="M388.875,-122.1061C388.875,-141.3391 388.875,-169 388.875,-169 388.875,-169 323.4984,-169 323.4984,-169"/>
<polygon fill="#000000" stroke="#000000" points="323.4985,-165.5001 313.4984,-169 323.4984,-172.5001 323.4985,-165.5001"/>
</g>
<!-- NgxFiledropperDirective -->
<g id="node2" class="node">
<title>NgxFiledropperDirective</title>
<polygon fill="#ffffb3" stroke="#000000" points="317.5044,-122 160.4956,-122 160.4956,-86 317.5044,-86 317.5044,-122"/>
<text text-anchor="middle" x="239" y="-99.8" font-family="Times,serif" font-size="14.00" fill="#000000">NgxFiledropperDirective</text>
</g>
<!-- NgxFiledropperDirective&#45;&gt;NgxFiledropperModule -->
<g id="edge2" class="edge">
<title>NgxFiledropperDirective&#45;&gt;NgxFiledropperModule</title>
<path fill="none" stroke="#000000" d="M239,-122.1061C239,-122.1061 239,-140.991 239,-140.991"/>
<polygon fill="#000000" stroke="#000000" points="235.5001,-140.9909 239,-150.991 242.5001,-140.991 235.5001,-140.9909"/>
</g>
<!-- NgxFiledropperComponent  -->
<g id="node5" class="node">
<title>NgxFiledropperComponent </title>
<polygon fill="#fb8072" stroke="#000000" points="442.2534,-252 267.7466,-252 267.7466,-216 442.2534,-216 442.2534,-252"/>
<text text-anchor="middle" x="355" y="-229.8" font-family="Times,serif" font-size="14.00" fill="#000000">NgxFiledropperComponent </text>
</g>
<!-- NgxFiledropperModule&#45;&gt;NgxFiledropperComponent  -->
<g id="edge4" class="edge">
<title>NgxFiledropperModule&#45;&gt;NgxFiledropperComponent </title>
<path fill="none" stroke="#000000" stroke-dasharray="5,2" d="M290.6794,-187.1061C290.6794,-187.1061 290.6794,-205.991 290.6794,-205.991"/>
<polygon fill="#000000" stroke="#000000" points="287.1794,-205.9909 290.6794,-215.991 294.1794,-205.991 287.1794,-205.9909"/>
</g>
<!-- NgxFiledropperDirective  -->
<g id="node6" class="node">
<title>NgxFiledropperDirective </title>
<polygon fill="#fb8072" stroke="#000000" points="249.5036,-252 88.4964,-252 88.4964,-216 249.5036,-216 249.5036,-252"/>
<text text-anchor="middle" x="169" y="-229.8" font-family="Times,serif" font-size="14.00" fill="#000000">NgxFiledropperDirective </text>
</g>
<!-- NgxFiledropperModule&#45;&gt;NgxFiledropperDirective  -->
<g id="edge5" class="edge">
<title>NgxFiledropperModule&#45;&gt;NgxFiledropperDirective </title>
<path fill="none" stroke="#000000" stroke-dasharray="5,2" d="M207.0082,-187.1061C207.0082,-187.1061 207.0082,-205.991 207.0082,-205.991"/>
<polygon fill="#000000" stroke="#000000" points="203.5083,-205.9909 207.0082,-215.991 210.5083,-205.991 203.5083,-205.9909"/>
</g>
<!-- CommonModule -->
<g id="node4" class="node">
<title>CommonModule</title>
<polygon fill="#8dd3c7" stroke="#000000" points="135.6681,-122 132.6681,-126 111.6681,-126 108.6681,-122 24.3319,-122 24.3319,-86 135.6681,-86 135.6681,-122"/>
<text text-anchor="middle" x="80" y="-99.8" font-family="Times,serif" font-size="14.00" fill="#000000">CommonModule</text>
</g>
<!-- CommonModule&#45;&gt;NgxFiledropperModule -->
<g id="edge3" class="edge">
<title>CommonModule&#45;&gt;NgxFiledropperModule</title>
<path fill="none" stroke="#000000" d="M112.166,-122.1061C112.166,-141.3391 112.166,-169 112.166,-169 112.166,-169 154.4865,-169 154.4865,-169"/>
<polygon fill="#000000" stroke="#000000" points="154.4865,-172.5001 164.4865,-169 154.4865,-165.5001 154.4865,-172.5001"/>
</g>
</g>
</svg>
